<?xml version="1.0" encoding="UTF-8"?>
<svg version="1.1" xmlns="http://www.w3.org/2000/svg" width="960" height="540">
<path d="M0 0 C13.42499407 2.28582565 29.10885133 11.68736359 39 21 C41.36318636 24.52772562 42.79891563 27.94245073 44 32 C44.23847656 32.69609375 44.47695313 33.3921875 44.72265625 34.109375 C45.73301533 37.24081905 46 39.67053976 46 43 C40.89571264 44.24629332 35.7911293 45.49136484 30.6862793 46.73535156 C28.95312638 47.15787512 27.22005191 47.58072057 25.48706055 48.00390625 C22.98246968 48.61545046 20.4775901 49.22579991 17.97265625 49.8359375 C17.20977798 50.02247894 16.44689972 50.20902039 15.66090393 50.4012146 C-1.45887848 54.56581655 -1.45887848 54.56581655 -5 54 C-6.95703125 52.49609375 -6.95703125 52.49609375 -8.8125 50.4375 C-12.65479288 46.33173561 -16.72036526 42.64224233 -21 39 C-20.31713505 34.82927101 -18.13909888 31.41936284 -16.0625 27.8125 C-15.66933594 27.12140137 -15.27617187 26.43030273 -14.87109375 25.71826172 C-10.97168807 18.88970342 -6.97633443 12.11701997 -2.96875 5.3515625 C-1.93552773 3.59262458 -0.912295 1.82459001 0 0 Z " fill="#B3B3B3" transform="translate(376,261)"/>
</svg>
