<?xml version="1.0" encoding="UTF-8"?>
<svg version="1.1" xmlns="http://www.w3.org/2000/svg" width="960" height="540">
<path d="M0 0 C2.18805823 4.6402521 4.37510671 9.28097835 6.5612793 13.92211914 C7.30287373 15.49613845 8.04472899 17.0700349 8.78686523 18.64379883 C10.8878454 23.09935016 12.98351797 27.55731831 15.07122803 32.019104 C15.92166488 33.83292592 16.77815456 35.64390669 17.63525391 37.45458984 C18.32047119 38.9214624 18.32047119 38.9214624 19.01953125 40.41796875 C19.40858643 41.24449951 19.7976416 42.07103027 20.19848633 42.92260742 C21 45 21 45 21 48 C17.19669354 49.37262477 13.39212105 50.74167792 9.58642578 52.10766602 C8.29637374 52.57124334 7.00665014 53.03573585 5.71728516 53.5012207 C-15.05974166 61 -15.05974166 61 -21 61 C-29.58856019 38.92857683 -29.58856019 38.92857683 -31 28 C-31.09764648 27.34032227 -31.19529297 26.68064453 -31.29589844 26.00097656 C-31.48046875 23.91015625 -31.48046875 23.91015625 -31 20 C-28.72215451 17.86252594 -27.03070978 16.61504925 -24.375 15.125 C-23.00219416 14.2892642 -21.63114276 13.45064075 -20.26171875 12.609375 C-19.55708496 12.18591797 -18.85245117 11.76246094 -18.12646484 11.32617188 C-14.05980085 8.78999291 -10.24392632 5.89730416 -6.39404297 3.04736328 C-2.20929218 0 -2.20929218 0 0 0 Z " fill="#B3B3B3" transform="translate(372,319)"/>
</svg>
