<?xml version="1.0" encoding="UTF-8"?>
<svg version="1.1" xmlns="http://www.w3.org/2000/svg" width="960" height="540">
<path d="M0 0 C0.20302734 1.47533203 0.20302734 1.47533203 0.41015625 2.98046875 C1.88688831 12.76561081 4.37109201 21.82356754 7.75024414 31.12963867 C8.05438232 31.98146729 8.35852051 32.8332959 8.671875 33.7109375 C8.9512793 34.46681152 9.23068359 35.22268555 9.51855469 36.00146484 C10 38 10 38 9 41 C6.84765625 41.87890625 6.84765625 41.87890625 4.0625 42.5625 C2.58136719 42.93761719 2.58136719 42.93761719 1.0703125 43.3203125 C-2.59893921 44.1325896 -6.28201602 44.75925663 -10.00390625 45.27734375 C-12.19467126 45.83687282 -12.19467126 45.83687282 -13.27734375 48.06640625 C-13.63505859 49.02353516 -13.63505859 49.02353516 -14 50 C-17.70511226 49.33467657 -21.17226753 48.35372805 -24.73828125 47.15234375 C-25.80498047 46.79462891 -26.87167969 46.43691406 -27.97070312 46.06835938 C-29.07349609 45.69517578 -30.17628906 45.32199219 -31.3125 44.9375 C-32.43462891 44.56044922 -33.55675781 44.18339844 -34.71289062 43.79492188 C-37.47618351 42.86598512 -40.23850178 41.93425558 -43 41 C-43 35.89165491 -40.82360265 33.83981099 -37.6875 30.125 C-36.58636102 28.78978656 -35.48612204 27.45383045 -34.38671875 26.1171875 C-33.82388184 25.4375293 -33.26104492 24.75787109 -32.68115234 24.05761719 C-31.05269313 22.06449284 -29.46621237 20.04590524 -27.89453125 18.0078125 C-27.16327026 17.06010986 -27.16327026 17.06010986 -26.41723633 16.09326172 C-25.49331301 14.89160434 -24.57242287 13.68760685 -23.6550293 12.48095703 C-19.44580219 7.0458116 -15.84166625 4.73865172 -9.4375 2.3125 C-8.30183594 1.87550781 -7.16617188 1.43851562 -5.99609375 0.98828125 C-3 0 -3 0 0 0 Z " fill="#B3B3B3" transform="translate(339,341)"/>
</svg>
