<?xml version="1.0" encoding="UTF-8"?>
<svg version="1.1" xmlns="http://www.w3.org/2000/svg" width="960" height="540">
<path d="M0 0 C3.81346128 1.51681494 5.67252097 3.74453026 8.1875 6.9375 C8.97511719 7.92621094 9.76273438 8.91492188 10.57421875 9.93359375 C11.77498047 11.45146484 11.77498047 11.45146484 13 13 C14.49635057 14.83631318 15.99627449 16.66972114 17.5 18.5 C19.69225146 21.1789992 21.88419468 23.85824208 24.07421875 26.5390625 C31.02585478 35.04550067 38.01363582 43.52208205 45 52 C51.87644172 60.34452759 58.75222923 68.68929548 65.59375 77.0625 C68.72176171 80.8811117 71.86090633 84.69049688 75 88.5 C80.34620779 94.9895876 85.68947432 101.48115203 91 108 C92.15048828 109.39605469 92.15048828 109.39605469 93.32421875 110.8203125 C94.06285156 111.72523438 94.80148437 112.63015625 95.5625 113.5625 C96.22378906 114.36816406 96.88507813 115.17382812 97.56640625 116.00390625 C99 118 99 118 99 120 C78.58007813 129.609375 78.58007813 129.609375 76.34176636 130.66226196 C74.84028054 131.36913539 73.33924557 132.07696721 71.83865356 132.78573608 C67.99278494 134.60073043 64.14007069 136.39755154 60.27099609 138.16259766 C59.50613388 138.51447144 58.74127167 138.86634521 57.95323181 139.22888184 C56.50810367 139.89317088 55.06031746 140.55172152 53.60939026 141.20324707 C47.37345937 144.08308428 42.69306189 147.98791065 38 153 C37.26910156 153.75925781 36.53820312 154.51851562 35.78515625 155.30078125 C30.7294886 160.72962648 26.1612285 166.509106 21.71704102 172.44213867 C18.32262384 176.89245872 18.32262384 176.89245872 15 178 C12.76757812 176.8112793 12.76757812 176.8112793 10.03125 174.88671875 C8.95488281 174.14212402 7.87851562 173.3975293 6.76953125 172.63037109 C6.16898926 172.20995544 5.56844727 171.78953979 4.94970703 171.35638428 C1.31673396 168.82897504 -2.36185253 166.36860524 -6.03125 163.89453125 C-7.72544366 162.74856187 -9.41944825 161.60231295 -11.11328125 160.45581055 C-30.50354362 147.33911711 -49.9776749 134.35985645 -69.56835938 121.54418945 C-78.20233609 115.88754492 -86.7313911 110.18305756 -95 104 C-97.32653858 102.32358063 -99.66302074 100.66185192 -102 99 C-98.50925031 95.42598472 -94.88897717 92.08954708 -91.0625 88.875 C-90.50618896 88.40562012 -89.94987793 87.93624023 -89.37670898 87.45263672 C-84.61476003 83.46122752 -79.75388839 79.60239978 -74.84594727 75.79248047 C-73.22572473 74.53445907 -71.61237912 73.26805073 -70 72 C-69.01902344 71.23429687 -68.03804688 70.46859375 -67.02734375 69.6796875 C-63.99990304 67.14175466 -61.53244608 64.22907969 -58.97265625 61.23046875 C-54.38239934 56.04029707 -49.31661909 51.28204268 -44.3828125 46.421875 C-40.64500043 42.71814632 -36.9552513 39.02928694 -33.53125 35.03125 C-28.30115149 28.93150982 -22.45584983 23.41404148 -16.73828125 17.77734375 C-12.10045207 13.17966893 -7.59205403 8.54993983 -3.35742188 3.57617188 C-2.29042294 2.33722491 -1.15617393 1.15617393 0 0 Z " fill="#B3B3B3" transform="translate(550,262)"/>
</svg>
