<?xml version="1.0" encoding="UTF-8"?>
<svg version="1.1" xmlns="http://www.w3.org/2000/svg" width="960" height="540">
<path d="M0 0 C2.49537085 0.85858875 4.32356045 2.03161657 6.48803711 3.54125977 C7.30530273 4.10651367 8.12256836 4.67176758 8.96459961 5.25415039 C10.23303711 6.14457031 10.23303711 6.14457031 11.52709961 7.05297852 C13.20141079 8.21598082 14.87588626 9.37874663 16.55053711 10.54125977 C17.33912109 11.09120605 18.12770508 11.64115234 18.94018555 12.20776367 C21.65434847 14.08850482 24.39571034 15.92233901 27.15209961 17.74047852 C25.37719119 23.06520377 22.17203571 26.26741224 18.37475586 30.28735352 C16.56110905 32.28905861 15.20930416 34.16604661 13.77709961 36.42797852 C11.15209961 38.74047852 11.15209961 38.74047852 9.18164062 38.87280273 C-0.47988671 37.83281674 -9.99380224 35.98396204 -19.53540039 34.17797852 C-21.31591248 33.84483162 -23.09651087 33.51214559 -24.87719727 33.17993164 C-29.20177818 32.37209034 -33.52514358 31.55802193 -37.84790039 30.74047852 C-37.84790039 30.08047852 -37.84790039 29.42047852 -37.84790039 28.74047852 C-35.82060269 27.0171235 -33.78260013 25.40231745 -31.66040039 23.80297852 C-26.68100492 19.97825313 -21.80383376 16.07536516 -17.03540039 11.99047852 C-15.96812026 11.08372426 -14.90042288 10.17746086 -13.83227539 9.27172852 C-11.94438138 7.6704781 -10.05867734 6.06663896 -8.17602539 4.45922852 C-7.38711914 3.80954102 -6.59821289 3.15985352 -5.78540039 2.49047852 C-4.77799805 1.64743164 -4.77799805 1.64743164 -3.75024414 0.78735352 C-1.84790039 -0.25952148 -1.84790039 -0.25952148 0 0 Z " fill="#B3B3B3" transform="translate(446.847900390625,362.259521484375)"/>
</svg>
