<?xml version="1.0" encoding="UTF-8"?>
<svg version="1.1" xmlns="http://www.w3.org/2000/svg" width="960" height="540">
<path d="M0 0 C9.12872703 2.29800826 18.01899127 5.24793731 26.93603516 8.2434082 C29.38979321 9.06746809 31.845151 9.88661612 34.30078125 10.70507812 C35.87509514 11.23148639 37.44931724 11.75816924 39.0234375 12.28515625 C39.75057953 12.52790787 40.47772156 12.77065948 41.22689819 13.02076721 C52.34353641 16.76083227 52.34353641 16.76083227 55.0625 21.8125 C57.12523359 25.49557213 59.22307117 28.79585135 62 32 C57.55271776 36.94246282 52.29726903 40.32360594 46.75 43.9375 C45.84636719 44.53240234 44.94273437 45.12730469 44.01171875 45.74023438 C42.21322979 46.92413179 40.41295557 48.10532197 38.61083984 49.28369141 C36.11056569 50.92731655 33.6287163 52.59594757 31.1484375 54.26953125 C28.13296416 56.28374191 25.11128927 58.10515331 21.875 59.75 C16.48142451 62.62101841 11.48870686 65.94896782 6.44067383 69.37548828 C1.7657311 72.53398853 -3.00045441 75.38126189 -8 78 C-8.22086288 69.69140364 -7.36583273 61.53202031 -6.50390625 53.28125 C-6.34908835 51.77195982 -6.19454685 50.26264127 -6.04026794 48.7532959 C-5.71788156 45.60963015 -5.39223289 42.46632454 -5.06420898 39.32324219 C-4.64328503 35.28749294 -4.23055446 31.25095408 -3.82019138 27.21411896 C-3.50342534 24.10667644 -3.18244328 20.99968082 -2.86015129 17.89280701 C-2.70614922 16.40332892 -2.55346307 14.91371419 -2.40210152 13.42396545 C-2.1910556 11.35313424 -1.97436527 9.28297197 -1.75610352 7.21289062 C-1.63396988 6.03424438 -1.51183624 4.85559814 -1.38600159 3.64123535 C-1 1 -1 1 0 0 Z " fill="#B3B3B3" transform="translate(273,377)"/>
</svg>
