<?xml version="1.0" encoding="UTF-8"?>
<svg version="1.1" xmlns="http://www.w3.org/2000/svg" width="960" height="540">
<path d="M0 0 C5.09234045 1.69405658 9.27452139 4.64288551 13.70703125 7.58984375 C15.00029579 8.44236221 15.00029579 8.44236221 16.31968689 9.31210327 C19.15376696 11.18252888 21.98324402 13.05978685 24.8125 14.9375 C26.77299947 16.23413822 28.73361276 17.53060437 30.69433594 18.8269043 C50.21907167 31.7514648 69.62633573 44.85040373 89 58 C87.27102552 61.62466115 85.1127268 64.52618604 82.625 67.6875 C75.67783721 76.74263364 72.85161345 84.46464061 72.90234375 95.9296875 C72.90556641 97.21875 72.90878906 98.5078125 72.91210938 99.8359375 C72.92046267 101.18229236 72.92892759 102.52864652 72.9375 103.875 C72.9425217 105.24479004 72.94708343 106.61458185 72.95117188 107.984375 C72.96292746 111.3229619 72.97936036 114.66145815 73 118 C67.15301542 119.26956734 61.49111019 120.25643241 55.5 120.5625 C49.64455821 120.89539821 43.82893251 121.35538864 38 122 C37.79503906 122.63808594 37.59007812 123.27617187 37.37890625 123.93359375 C37.10949219 124.75988281 36.84007812 125.58617187 36.5625 126.4375 C36.29566406 127.26121094 36.02882813 128.08492187 35.75390625 128.93359375 C35 131 35 131 34 132 C28.04664833 132.6643225 23.0749582 132.24797325 18 129 C16.48987562 126.45058849 15.75972944 123.84898539 15 121 C14.566875 119.845 14.13375 118.69 13.6875 117.5 C13.01545303 114.07866996 13.0842918 113.13992757 14.0625 110 C15.41196811 105.55621011 14.16388412 103.09592352 12 99 C10.18283736 95.18395845 9.67597833 93.08240015 11 89 C11.66 88.34 12.32 87.68 13 87 C12.90888062 84.46048456 12.90888062 84.46048456 12 82 C9.04622502 79.63019987 9.04622502 79.63019987 5 80 C2.71760829 82.92321965 2.71760829 82.92321965 1 86 C-0.299375 85.855625 -1.59875 85.71125 -2.9375 85.5625 C-4.16533203 85.42908203 -4.16533203 85.42908203 -5.41796875 85.29296875 C-7.08914622 85.10334952 -8.75870488 84.898595 -10.42578125 84.67578125 C-14.53710801 84.1437272 -17.94333265 83.82225787 -22 85 C-24.30039124 81.54941314 -24.4738275 79.05904498 -25 75 C-26.00444079 73.76951515 -26.00444079 73.76951515 -28.03442383 73.91821289 C-28.91638428 73.9361792 -29.79834473 73.95414551 -30.70703125 73.97265625 C-31.68148193 73.98619141 -32.65593262 73.99972656 -33.65991211 74.01367188 C-34.70026611 74.02978516 -35.74062012 74.04589844 -36.8125 74.0625 C-45.11116603 74.13928618 -52.8966659 73.95177079 -61 72 C-62.07576471 61.60094118 -62.07576471 61.60094118 -59.51171875 57.78515625 C-57.625 56 -57.625 56 -55.7265625 54.5 C-53.76781841 52.79828567 -52.92531951 51.41244014 -52 49 C-52.15275962 45.41014904 -52.85438887 43.25761969 -54.625 40.125 C-57.81067783 37.27465668 -59.85005145 37.83554982 -64 38 C-64.84043997 34.4182952 -65.67110899 30.83439357 -66.5 27.25 C-66.85771484 25.72632813 -66.85771484 25.72632813 -67.22265625 24.171875 C-67.44824219 23.1921875 -67.67382812 22.2125 -67.90625 21.203125 C-68.11572266 20.30239258 -68.32519531 19.40166016 -68.54101562 18.47363281 C-69 16 -69 16 -69 12 C-61.61351625 12.24114918 -54.66817475 13.4426609 -47.5 15.12109375 C-44.88916896 15.69785265 -42.27687743 16.26750552 -39.6640625 16.83520508 C-37.88206139 17.23808235 -36.10569929 17.66673012 -34.3359375 18.12036133 C-25.75090069 20.38113832 -25.75090069 20.38113832 -17 20 C-12.18780971 17.10887282 -9.16367379 12.51171839 -6.21533203 7.84890747 C-4.36429886 5.0328959 -2.20056183 2.54870527 0 0 Z " fill="#B3B3B3" transform="translate(476,383)"/>
</svg>
