<?xml version="1.0" encoding="UTF-8"?>
<svg version="1.1" xmlns="http://www.w3.org/2000/svg" width="960" height="540">
<path d="M0 0 C2.73284781 7.32360006 5.01890569 14.15514057 5.86572266 21.93701172 C6.90070401 31.16998099 9.14579878 35.67650184 16.30859375 41.640625 C20.02455666 44.89815998 22.57702969 47.8792328 23.55859375 52.80078125 C22.88715876 56.64627258 21.34758884 59.29857895 19.44018555 62.67089844 C14.74286492 71.21855389 14.74286492 71.21855389 14.5390625 80.69140625 C15.83362583 84.78042267 17.65957052 88.57572312 19.63916016 92.37353516 C21.12894214 95.2488625 22.49348665 98.16756387 23.85546875 101.10546875 C28.928617 111.86432798 34.13100215 122.00277923 42 131 C42.76183594 131.87398437 43.52367187 132.74796875 44.30859375 133.6484375 C46.51298068 136.12419078 48.75369647 138.56234469 51 141 C52.12975311 142.28751143 53.25499775 143.5789974 54.375 144.875 C57.32144692 148.25795757 60.33947143 151.57212022 63.375 154.875 C63.84776367 155.39046387 64.32052734 155.90592773 64.80761719 156.43701172 C66.99507817 158.82135917 69.18690139 161.20094954 71.390625 163.5703125 C89.35235694 183.1021259 89.35235694 183.1021259 89.375 196.8125 C89.39949219 197.58142578 89.42398437 198.35035156 89.44921875 199.14257812 C89.48673467 206.55197205 87.14741888 211.86369775 82.15234375 217.30859375 C81.09223527 218.36325561 80.020181 219.40602364 78.9375 220.4375 C78.08466431 221.2720874 78.08466431 221.2720874 77.21459961 222.12353516 C72.8160356 226.36962214 68.17688706 230.19892383 63.38671875 233.99609375 C58.76406769 237.87730487 54.28554191 242.0303641 53.6875 248.25 C54.29016158 255.48193899 59.34790332 259.45227121 64.5625 263.875 C65.13935547 264.35324219 65.71621094 264.83148438 66.31054688 265.32421875 C71.0515216 269.46915397 73.42564181 273.78438057 74.28100586 280.0625 C74.49677806 284.79715857 73.58978213 288.07067539 71 292 C66.69578441 295.97312208 63.03666808 298.28487538 57.125 298.3125 C56.30257812 298.32925781 55.48015625 298.34601563 54.6328125 298.36328125 C46.27357356 297.20985511 41.45130566 290.62418417 36.00976562 284.8046875 C30.71641934 279.30326144 26.94217101 276.48222275 19.16796875 275.53125 C6.81257403 275.43424985 -0.13695944 277.81605792 -9.0625 286.5625 C-13.92390584 291.52332427 -18.13153361 296.85483204 -22.16015625 302.50390625 C-25.94447311 307.63804314 -25.94447311 307.63804314 -28.90234375 308.65234375 C-32.40831976 309.14358415 -34.32953882 309.36875365 -37.5 307.625 C-39.76665292 303.65835739 -39.71652534 300.38205577 -39 296 C-37.99797461 292.60212845 -36.91551145 289.24841057 -35.79711914 285.88818359 C-33.62655405 279.21012826 -32.74838254 274.27804573 -35.3125 267.5625 C-36.90501564 264.78178314 -36.90501564 264.78178314 -40 263 C-44.68550695 262.12204505 -48.81189792 262.50574268 -52.9375 264.9375 C-65.14831826 273.5797491 -74.02584878 283.18607589 -78.76904297 297.36157227 C-80.76801021 303.06281343 -82.96744896 305.77916734 -88 309 C-92.35718719 307.41650917 -94.8230194 304.02067433 -97.6875 300.5625 C-98.21641846 299.93432373 -98.74533691 299.30614746 -99.2902832 298.65893555 C-100.86848473 296.77935213 -102.43622637 294.89159597 -104 293 C-104.8146875 292.01515625 -105.629375 291.0303125 -106.46875 290.015625 C-108.65550879 287.35147521 -110.82940757 284.67733 -113 282 C-118.92803536 274.73591122 -124.88390129 267.49504879 -130.84643555 260.25927734 C-134.07114546 256.34508068 -137.29116366 252.42723253 -140.5 248.5 C-146.03702976 241.72455878 -151.60489025 234.97452324 -157.16943359 228.22167969 C-158.953116 226.0569011 -160.73641659 223.89180875 -162.51953125 221.7265625 C-163.09525879 221.02764893 -163.67098633 220.32873535 -164.26416016 219.60864258 C-165.41704693 218.20815269 -166.56907217 216.80695312 -167.72021484 215.4050293 C-170.77840107 211.6831277 -173.85445865 207.97798471 -176.95703125 204.29296875 C-177.60220703 203.52210938 -178.24738281 202.75125 -178.91210938 201.95703125 C-180.15133524 200.47709245 -181.39589136 199.00159578 -182.64648438 197.53125 C-183.48083008 196.53158203 -183.48083008 196.53158203 -184.33203125 195.51171875 C-184.82421143 194.92865967 -185.3163916 194.34560059 -185.82348633 193.74487305 C-187.14848781 191.77977954 -187.7468782 190.35832548 -188 188 C-186.44010568 185.94155122 -184.94007287 184.2455286 -183.125 182.4375 C-182.09387766 181.36565818 -181.0652693 180.29139277 -180.0390625 179.21484375 C-179.5224707 178.67585449 -179.00587891 178.13686523 -178.47363281 177.58154297 C-176.36183917 175.31510838 -174.43202855 172.92030486 -172.5 170.5 C-168.86500611 165.98222187 -165.0328971 161.72181484 -161.0859375 157.48046875 C-158.09558642 154.24788253 -155.26213671 150.93294134 -152.5 147.5 C-148.86500611 142.98222187 -145.0328971 138.72181484 -141.0859375 134.48046875 C-138.09558642 131.24788253 -135.26213671 127.93294134 -132.5 124.5 C-128.86500611 119.98222187 -125.0328971 115.72181484 -121.0859375 111.48046875 C-118.09558642 108.24788253 -115.26213671 104.93294134 -112.5 101.5 C-108.8643595 96.98141824 -105.03163598 92.72016671 -101.08374023 88.47827148 C-98.11284372 85.2670095 -95.30038923 81.97372185 -92.5625 78.5625 C-88.65632 73.7061681 -84.51457328 69.12825808 -80.24829102 64.59008789 C-77.83666691 62.01944669 -75.5259044 59.43286101 -73.328125 56.67578125 C-71 54 -71 54 -68 53 C-66.31598529 51.040997 -66.31598529 51.040997 -64.6875 48.6875 C-62.51696898 45.78435788 -61.07668386 44.04952499 -58 42.0625 C-54.16541026 39.42621955 -52.25910399 36.24773178 -49.80859375 32.33984375 C-46.45766885 28.00462989 -42.12257377 26.54868509 -37 25 C-37.10441406 23.89591797 -37.10441406 23.89591797 -37.2109375 22.76953125 C-37.65290593 14.80357652 -37.65290593 14.80357652 -34.5625 11 C-31.36584469 8.88900121 -27.88284146 7.88482314 -24.23046875 6.8203125 C-21.89252564 5.96047353 -20.32489884 4.9086283 -18.375 3.375 C-12.94964128 -0.77820564 -6.53572294 -0.11466181 0 0 Z " fill="#B3B3B3" transform="translate(742,71)"/>
</svg>
