<?xml version="1.0" encoding="UTF-8"?>
<svg version="1.1" xmlns="http://www.w3.org/2000/svg" width="960" height="540">
<path d="M0 0 C5.42745809 0.40755638 9.3376085 3.67247932 13.65234375 6.67382812 C19.06341615 10.3188692 24.4122034 12.02266493 30.9375 12.625 C32.278125 12.74875 33.61875 12.8725 35 13 C34.34 15.97 33.68 18.94 33 22 C33.63808594 22.18175781 34.27617187 22.36351563 34.93359375 22.55078125 C35.75988281 22.80214844 36.58617187 23.05351563 37.4375 23.3125 C38.26121094 23.55613281 39.08492187 23.79976562 39.93359375 24.05078125 C40.61550781 24.36402344 41.29742188 24.67726563 42 25 C42.495 26.485 42.495 26.485 43 28 C42.33333333 29.33333333 41.66666667 30.66666667 41 32 C41.33 32.99 41.66 33.98 42 35 C46.12973628 34.43260132 46.12973628 34.43260132 50 33 C51.64142541 32.85359499 53.2898141 32.77903411 54.9375 32.75 C55.81277344 32.72421875 56.68804688 32.6984375 57.58984375 32.671875 C60.48844537 33.06649823 61.22463415 33.73177139 63 36 C63.66 36.99 64.32 37.98 65 39 C66.99117408 39.69258229 68.9921136 40.35747635 71 41 C73.375 42.4375 73.375 42.4375 75 44 C75 44.99 75 45.98 75 47 C71.04 48.98 71.04 48.98 67 51 C66.47302454 57.06021774 67.56726854 62.86565666 71 68 C73.39762223 69.03056727 73.39762223 69.03056727 76 69 C77.85856221 68.0707189 79.7134898 67.1317595 81.53125 66.125 C86.41315751 63.90033329 91.7628745 63.05381184 97 62 C96.42547254 58.06924356 96.42547254 58.06924356 94 55 C94.04407606 52.18794721 94.18771472 49.48182693 94.4375 46.6875 C95.0012271 40.88012009 95.0012271 40.88012009 94.39453125 35.12109375 C94.19923828 34.07115234 94.19923828 34.07115234 94 33 C96.25 30.375 96.25 30.375 99 28 C99.45109131 27.44344727 99.90218262 26.88689453 100.36694336 26.31347656 C102 25 102 25 104.24438477 25.03027344 C105.11377686 25.22137695 105.98316895 25.41248047 106.87890625 25.609375 C107.85746582 25.82013672 108.83602539 26.03089844 109.84423828 26.24804688 C110.88563965 26.49619141 111.92704102 26.74433594 113 27 C114.57177002 27.36448242 114.57177002 27.36448242 116.17529297 27.73632812 C119.44388841 28.52565757 122.68964785 29.37952146 125.9375 30.25 C127.04673828 30.52457031 128.15597656 30.79914063 129.29882812 31.08203125 C137.28740107 33.23744779 137.28740107 33.23744779 140.73046875 36.921875 C143.43613399 43.48207255 142.42705449 49.47729105 140 56 C139.96096727 57.66620954 139.95534825 59.33393157 140 61 C141.62451419 61.33569297 143.24962917 61.6684796 144.875 62 C145.77992188 62.185625 146.68484375 62.37125 147.6171875 62.5625 C149.92407903 63.06019595 149.92407903 63.06019595 152 63 C152.268125 61.72125 152.53625 60.4425 152.8125 59.125 C153.57190099 55.50324145 153.70077803 55.19948132 157 53 C163.23096618 50.83702129 170.32964299 48.46954474 176.84765625 50.60546875 C179.74319985 51.13623082 181.70174873 50.42734414 184.5 49.5625 C187.98470675 48.49506922 190.29451922 48 194 48 C193.57003828 52.46085286 190.46462821 55.01481887 187.5 58.0625 C183.67035465 62.09609097 179.97467939 66.15026348 176.5 70.5 C172.68005989 75.26108478 168.61061181 79.71273025 164.44140625 84.1640625 C161.32431446 87.51116869 158.36418887 90.93014141 155.5 94.5 C151.68005989 99.26108478 147.61061181 103.71273025 143.44140625 108.1640625 C140.32431446 111.51116869 137.36418887 114.93014141 134.5 118.5 C130.68005989 123.26108478 126.61061181 127.71273025 122.44140625 132.1640625 C119.32431446 135.51116869 116.36418887 138.93014141 113.5 142.5 C110.15697644 146.66666705 106.64881274 150.60415903 103 154.5 C99.29292088 158.45899955 95.72419892 162.46604357 92.3125 166.6875 C91.59578125 167.56277344 90.8790625 168.43804687 90.140625 169.33984375 C88.65932352 171.18065818 87.21335275 173.05025776 85.796875 174.94140625 C85.05953125 175.86824219 84.3221875 176.79507813 83.5625 177.75 C82.92441406 178.59046875 82.28632812 179.4309375 81.62890625 180.296875 C75.18467053 184.4717439 63.71381254 180.06171931 56.62109375 178.59375 C54.16960065 178.09600751 51.71810306 177.59828708 49.26660156 177.10058594 C47.31869514 176.70218821 45.37078889 176.30378962 43.42289734 175.90531921 C37.37154985 174.66993557 31.31680795 173.4512649 25.26171875 172.234375 C24.58322498 172.09793831 23.90473122 171.96150162 23.20567703 171.82093048 C9.08070136 168.98434344 -5.07568744 166.32877778 -19.25 163.75 C-20.31654816 163.55591553 -21.38309631 163.36183105 -22.48196411 163.16186523 C-28.32009086 162.10107941 -34.15941367 161.04715552 -40 160 C-41.27677506 155.73955975 -40.55846639 152.10380601 -39.75 147.8125 C-39.61158691 147.05163086 -39.47317383 146.29076172 -39.33056641 145.50683594 C-38.31503176 140.13884604 -36.88262068 135.13442004 -35 130 C-34.84175247 129.20297668 -34.68350494 128.40595337 -34.52046204 127.58477783 C-33.98199476 124.91058031 -33.20311838 122.46576882 -32.29760742 119.89355469 C-31.95022018 118.90192322 -31.60283295 117.91029175 -31.24491882 116.88861084 C-30.8689003 115.82708801 -30.49288177 114.76556519 -30.10546875 113.671875 C-29.71684158 112.56829651 -29.32821442 111.46471802 -28.92781067 110.32769775 C-28.10484203 107.99375015 -27.28014847 105.66041015 -26.45385742 103.32763672 C-25.19771061 99.77884641 -23.94907216 96.2274785 -22.70117188 92.67578125 C-21.8988911 90.40348563 -21.09617079 88.13134514 -20.29296875 85.859375 C-19.92302292 84.8059491 -19.55307709 83.75252319 -19.17192078 82.66717529 C-17.519219 78.01609323 -15.82032473 73.38750349 -13.93481445 68.82519531 C-13.64000687 68.1092218 -13.34519928 67.39324829 -13.04145813 66.65557861 C-12 65 -12 65 -8.75 63.9375 C-7.8425 63.958125 -6.935 63.97875 -6 64 C-5.67 60.04 -5.34 56.08 -5 52 C-1.6888987 50.89629957 0.24748949 51.07326359 3.6875 51.4375 C4.68136719 51.53933594 5.67523438 51.64117187 6.69921875 51.74609375 C7.45847656 51.82988281 8.21773438 51.91367188 9 52 C8.65772428 49.02934491 8.65772428 49.02934491 8 46 C4.59394526 44.29697263 0.70775894 44.65220496 -3.0546875 44.4765625 C-6.22449197 43.96367637 -7.64679427 43.12584286 -10 41 C-9.4375 39.125 -9.4375 39.125 -8 37 C-4.375 35.75 -4.375 35.75 -1 35 C-1.33 30.71 -1.66 26.42 -2 22 C-2.99 21.67 -3.98 21.34 -5 21 C-1.58956916 1.58956916 -1.58956916 1.58956916 0 0 Z " fill="#B3B3B3" transform="translate(473,76)"/>
</svg>
