<?xml version="1.0" encoding="UTF-8"?>
<svg version="1.1" xmlns="http://www.w3.org/2000/svg" width="960" height="540">
<path d="M0 0 C2.44246231 0.29477993 4.88044677 0.62900883 7.3125 1 C10.42238611 1.65095631 10.42238611 1.65095631 12.51293945 0.83154297 C15.49909877 0.27442112 17.02569446 1.24364643 19.73046875 2.5703125 C20.71466797 3.04726562 21.69886719 3.52421875 22.71289062 4.015625 C24.24719727 4.78132812 24.24719727 4.78132812 25.8125 5.5625 C26.81603516 6.04976562 27.81957031 6.53703125 28.85351562 7.0390625 C34.88394953 9.98954155 40.79543608 13.10815295 46.625 16.4375 C46.44604492 18.28076172 46.44604492 18.28076172 45.625 20.4375 C43.40356445 21.77783203 43.40356445 21.77783203 40.48828125 22.9453125 C39.43576172 23.37457031 38.38324219 23.80382812 37.29882812 24.24609375 C36.18958984 24.68050781 35.08035156 25.11492187 33.9375 25.5625 C32.84759766 26.00464844 31.75769531 26.44679687 30.63476562 26.90234375 C25.6728331 28.90161297 20.71223481 30.77895691 15.625 32.4375 C22.52174237 49.63121278 29.5654488 66.75752781 36.78607178 83.81784058 C38.00282792 86.69418505 39.21680961 89.57168693 40.43017578 92.44946289 C43.943282 100.77518912 47.4657893 109.09552749 51.06994629 117.38232422 C52.49591663 120.66714033 53.90710698 123.95818627 55.315979 127.25036621 C55.97046031 128.76889753 56.63199723 130.28441109 57.3012085 131.79650879 C58.22299508 133.88039963 59.11961756 135.97357665 60.01171875 138.0703125 C60.51920654 139.23449707 61.02669434 140.39868164 61.54956055 141.59814453 C64.29343522 151.39387054 62.20817253 161.95265362 61.12890625 171.921875 C60.97389811 173.39149187 60.81936093 174.86115848 60.66526794 176.33087158 C60.3433533 179.390391 60.01780963 182.44949233 59.68920898 185.50830078 C59.26969161 189.41348695 58.85627645 193.31928655 58.44519138 197.2253685 C58.05001732 200.97857459 57.65219871 204.73149873 57.25390625 208.484375 C57.17906069 209.19093987 57.10421513 209.89750473 57.02710152 210.62548065 C56.81319332 212.63946963 56.5971872 214.65323545 56.38110352 216.66699219 C56.19790306 218.37928009 56.19790306 218.37928009 56.01100159 220.12615967 C55.88362106 221.21890198 55.75624054 222.31164429 55.625 223.4375 C55.41743324 225.32290497 55.41743324 225.32290497 55.20567322 227.24639893 C54.625 230.4375 54.625 230.4375 52.578125 232.265625 C51.68609375 232.73484375 50.7940625 233.2040625 49.875 233.6875 C45.17678382 236.39918119 41.1403704 239.33512318 37.0625 242.875 C36.51899902 243.34292969 35.97549805 243.81085938 35.41552734 244.29296875 C34.33719051 245.2230706 33.26002122 246.15452795 32.18408203 247.08740234 C29.80845961 249.14458868 27.4167845 251.17878974 25 253.1875 C23.83597656 254.16976562 23.83597656 254.16976562 22.6484375 255.171875 C21.64683594 255.79835938 21.64683594 255.79835938 20.625 256.4375 C19.635 256.1075 18.645 255.7775 17.625 255.4375 C17.625 252.1375 17.625 248.8375 17.625 245.4375 C15.645 245.1075 13.665 244.7775 11.625 244.4375 C11.75003906 243.8084375 11.87507813 243.179375 12.00390625 242.53125 C12.23497925 239.26672928 12.01307562 237.42786043 10.625 234.4375 C3.74546404 229.60087193 -4.41546853 227.07793213 -12.328125 224.41015625 C-13.81856323 223.8989624 -13.81856323 223.8989624 -15.33911133 223.37744141 C-17.29516256 222.7179828 -19.26136448 222.08778215 -21.23706055 221.48974609 C-27.86263134 219.3039541 -27.86263134 219.3039541 -29.44189453 216.63330078 C-30.00390625 214.69140625 -30.00390625 214.69140625 -30.375 211.4375 C-30.97828125 211.90800781 -31.5815625 212.37851562 -32.203125 212.86328125 C-33.40195313 213.79720703 -33.40195313 213.79720703 -34.625 214.75 C-35.41390625 215.36488281 -36.2028125 215.97976563 -37.015625 216.61328125 C-37.79421875 217.21527344 -38.5728125 217.81726563 -39.375 218.4375 C-40.09171875 219.00855469 -40.8084375 219.57960938 -41.546875 220.16796875 C-43.375 221.4375 -43.375 221.4375 -45.375 221.4375 C-46.98225635 218.22298731 -46.43248185 215.00137464 -46.375 211.4375 C-47.42816406 211.19515625 -48.48132813 210.9528125 -49.56640625 210.703125 C-53.38160294 209.82006 -57.19220631 208.91875661 -61.00048828 208.00634766 C-62.54513221 207.63630649 -64.09035333 207.26866364 -65.63623047 206.90380859 C-67.71947522 206.40793172 -69.79749078 205.89431354 -71.875 205.375 C-73.1021875 205.07464844 -74.329375 204.77429688 -75.59375 204.46484375 C-76.97046875 203.95630859 -76.97046875 203.95630859 -78.375 203.4375 C-79.76959786 199.25370642 -79.51554935 195.37367934 -79.4375 190.98828125 C-79.39785465 188.73592963 -79.41226343 186.48146005 -79.5 184.23046875 C-79.5 179.71910502 -79.30673734 176.64934209 -76.50390625 173.00390625 C-73.90854793 170.60787145 -71.23208399 168.51435129 -68.375 166.4375 C-66.84746094 165.29474609 -66.84746094 165.29474609 -65.2890625 164.12890625 C-63.25220112 162.6076735 -61.20938544 161.0943746 -59.16015625 159.58984375 C-55.57763947 156.82130694 -52.42422225 153.7766131 -49.375 150.4375 C-50.01308594 150.01597656 -50.65117187 149.59445312 -51.30859375 149.16015625 C-52.54802734 148.33837891 -52.54802734 148.33837891 -53.8125 147.5 C-54.63621094 146.95472656 -55.45992187 146.40945313 -56.30859375 145.84765625 C-58.375 144.4375 -58.375 144.4375 -59.375 143.4375 C-59.32421875 141.4765625 -59.32421875 141.4765625 -59.0625 139.0625 C-58.98386719 138.27101563 -58.90523437 137.47953125 -58.82421875 136.6640625 C-58.375 134.4375 -58.375 134.4375 -56.375 131.4375 C-53.94921875 131.1015625 -53.94921875 131.1015625 -51.0625 131.0625 C-46.51155708 130.77977576 -46.51155708 130.77977576 -42.6875 128.375 C-41.924375 127.405625 -41.16125 126.43625 -40.375 125.4375 C-38.99455836 124.00583104 -37.59756046 122.59000656 -36.1875 121.1875 C-35.51332031 120.50171875 -34.83914062 119.8159375 -34.14453125 119.109375 C-31.26415956 116.38796422 -29.34819447 116.34736565 -25.5 116.1875 C-21.81952066 115.8422891 -20.70190007 115.71656104 -17.8125 113.25 C-15.10083019 107.94455907 -15.23882955 102.41080016 -15.3125 96.5625 C-15.31701172 95.87414062 -15.32152344 95.18578125 -15.32617188 94.4765625 C-15.33783664 92.79683665 -15.35576729 91.11715625 -15.375 89.4375 C-15.98859375 89.14746094 -16.6021875 88.85742188 -17.234375 88.55859375 C-20.37952355 86.91140829 -21.59525201 85.55205899 -23.375 82.4375 C-23.53019243 79.57273165 -23.43815943 76.82125238 -23.22265625 73.9609375 C-23.08778356 71.38895952 -23.08778356 71.38895952 -24.8515625 70.0546875 C-27.33721736 67.41606927 -26.7330163 64.70275866 -26.6875 61.1875 C-26.68363281 59.90359375 -26.67976563 58.6196875 -26.67578125 57.296875 C-26.37197662 53.3987065 -25.56585657 50.1519407 -24.375 46.4375 C-23.82849017 44.52220867 -23.28642877 42.60563922 -22.75 40.6875 C-22.48960937 39.76453125 -22.22921875 38.8415625 -21.9609375 37.890625 C-21.25884079 35.37153528 -21.25884079 35.37153528 -21.375 32.4375 C-22.179375 31.963125 -22.98375 31.48875 -23.8125 31 C-26.375 29.4375 -26.375 29.4375 -27.27783203 27.61083984 C-27.375 25.4375 -27.375 25.4375 -25.82373047 23.33447266 C-25.05432129 22.5976123 -24.28491211 21.86075195 -23.4921875 21.1015625 C-22.65429688 20.28429687 -21.81640625 19.46703125 -20.953125 18.625 C-20.06109375 17.779375 -19.1690625 16.93375 -18.25 16.0625 C-16.51604224 14.39028554 -14.78421407 12.7158596 -13.0546875 11.0390625 C-12.23532715 10.24991455 -11.4159668 9.4607666 -10.57177734 8.64770508 C-8.72439532 6.78903099 -7.08025783 4.92351328 -5.46875 2.86328125 C-3.375 0.4375 -3.375 0.4375 0 0 Z " fill="#B3B3B3" transform="translate(208.375,227.5625)"/>
</svg>
