<?xml version="1.0" encoding="UTF-8"?>
<svg version="1.1" xmlns="http://www.w3.org/2000/svg" width="960" height="540">
<path d="M0 0 C8.26927062 0.79887629 16.3648385 2.17845071 24.5148468 3.7689209 C25.93120377 4.04058113 27.34765933 4.3117278 28.76420593 4.58239746 C32.50588436 5.29917792 36.24595563 6.02400532 39.98561096 6.75125885 C42.29486987 7.1998878 44.60449577 7.64657528 46.91426086 8.09259033 C55.87154346 9.82232287 64.82646304 11.56385051 73.77961731 13.31481934 C77.22047074 13.98709169 80.66192057 14.65616904 84.10371399 15.3236084 C88.26288337 16.13127811 92.41980913 16.94921304 96.57411194 17.78155518 C97.9533761 18.05689223 99.33329481 18.32897298 100.71388245 18.59759521 C102.55323566 18.95684971 104.38963895 19.33111531 106.2257843 19.7064209 C107.19644836 19.90123047 108.16711243 20.09604004 109.16719055 20.29675293 C111.84952447 21.13157164 113.53739989 22.26222983 115.6632843 24.0736084 C114.91232483 24.81933105 114.16136536 25.56505371 113.38764954 26.33337402 C110.5689469 29.13380579 107.75369511 31.93768584 104.93940735 34.74255371 C103.72711182 35.94985905 102.5139156 37.15626074 101.29975891 38.36169434 C95.49703713 44.12380423 89.73984396 49.84794864 84.43696594 56.07946777 C79.95026449 61.12384182 75.01267941 65.77135625 70.20625305 70.51013184 C64.9889345 75.66065183 59.84436546 80.81993263 55.1007843 86.4173584 C53.68692035 88.04637555 52.20630574 89.56732557 50.6632843 91.0736084 C45.57340116 89.51428004 42.09708378 86.37714145 38.1007843 83.0111084 C36.6633781 81.82191914 35.22456666 80.63442645 33.78437805 79.4486084 C33.08038879 78.86853027 32.37639954 78.28845215 31.65107727 77.6907959 C28.10472286 74.8056262 24.44161055 72.08593695 20.7648468 69.3704834 C18.49470753 67.68932232 16.24211083 65.99345529 13.9992218 64.2767334 C5.5325163 57.81694284 -3.13163205 51.77345042 -12.02812195 45.92126465 C-17.8707404 42.07712736 -23.60646322 38.08276031 -29.3367157 34.0736084 C-27.81804872 30.67617815 -25.83392568 28.05742555 -23.4617157 25.1986084 C-22.66636414 24.2395459 -21.87101257 23.2804834 -21.05155945 22.2923584 C-17.56659299 18.14513168 -14.04060471 14.03266101 -10.49931335 9.93347168 C-10.01639832 9.37385742 -9.53348328 8.81424316 -9.03593445 8.2376709 C-8.56204285 7.70561035 -8.08815125 7.1735498 -7.59989929 6.62536621 C-6.13918596 4.92998663 -6.13918596 4.92998663 -4.73124695 2.0970459 C-2.3367157 0.0736084 -2.3367157 0.0736084 0 0 Z " fill="#B3B3B3" transform="translate(433.3367156982422,237.9263916015625)"/>
</svg>
