<?xml version="1.0" encoding="UTF-8"?>
<svg version="1.1" xmlns="http://www.w3.org/2000/svg" width="960" height="540">
<path d="M0 0 C2.65988802 0.91318125 4.44501528 1.64729903 6.62475586 3.34936523 C7.21538818 3.80150391 7.80602051 4.25364258 8.41455078 4.71948242 C9.03821533 5.21351563 9.66187988 5.70754883 10.30444336 6.21655273 C11.32598511 7.00400879 11.32598511 7.00400879 12.36816406 7.80737305 C13.85505578 8.95377171 15.33874119 10.10433824 16.81958008 11.25854492 C20.10699922 13.81202546 23.42301347 16.32715944 26.73852539 18.84399414 C29.38874437 20.85812118 32.03222256 22.8808763 34.67553711 24.90405273 C38.47916459 27.80936358 42.30717324 30.67864398 46.15209961 33.52905273 C47.11929932 34.25125 48.08649902 34.97344727 49.08300781 35.7175293 C50.94644136 37.10803207 52.81587826 38.49053433 54.69189453 39.86401367 C55.94643433 40.80422363 55.94643433 40.80422363 57.22631836 41.76342773 C57.96720703 42.31095703 58.7080957 42.85848633 59.47143555 43.42260742 C61.4154632 45.32217475 61.90237998 46.41055711 62.17944336 49.09155273 C61.51899246 50.76069228 60.85086466 52.4267958 60.17944336 54.09155273 C59.78995774 56.33163299 59.51985689 58.57418553 59.24291992 60.83081055 C57.79930086 72.39325479 54.69970569 78.91489515 46.23803711 86.94311523 C42.43520587 90.91191444 39.18042174 95.34008172 35.82788086 99.68920898 C33.35664158 102.89229414 30.78728076 105.9988647 28.17944336 109.09155273 C22.95294719 108.48849548 18.66737183 106.01808862 14.05444336 103.65405273 C13.28229492 103.26540039 12.51014648 102.87674805 11.71459961 102.47631836 C7.54406965 100.36478233 3.39706029 98.21120534 -0.73120117 96.01831055 C-13.94621316 89.0038877 -27.29943533 82.27457296 -40.68530273 75.59399414 C-43.84537202 74.01684014 -47.00359522 72.4360275 -50.16132545 70.85419655 C-52.63491659 69.61558464 -55.10946652 68.37889815 -57.58430099 67.14277267 C-59.30678835 66.2820157 -61.02848328 65.41967354 -62.75015259 64.55728149 C-68.71284534 61.58480792 -74.69953765 58.72401681 -80.82055664 56.09155273 C-79.13484524 50.89914539 -76.02762545 46.71997897 -72.94555664 42.27905273 C-72.36620361 41.43810059 -71.78685059 40.59714844 -71.18994141 39.73071289 C-67.02338625 33.72312174 -62.79771753 27.74737144 -58.21508789 22.04736328 C-55.47558967 18.59023184 -53.42868613 15.40438049 -51.73852539 11.31811523 C-43.23374473 -7.25343274 -17.43203285 -4.14496736 0 0 Z " fill="#B3B3B3" transform="translate(373.820556640625,160.908447265625)"/>
</svg>
