<?xml version="1.0" encoding="UTF-8"?>
<svg version="1.1" xmlns="http://www.w3.org/2000/svg" width="960" height="540">
<path d="M0 0 C5.7659178 3.11775262 10.94368797 6.76373841 16.1875 10.6875 C17.03046631 11.31398438 17.87343262 11.94046875 18.74194336 12.5859375 C20.41554272 13.83075021 22.08786569 15.07728118 23.75878906 16.32568359 C25.59392276 17.69663642 27.43225594 19.06297494 29.2734375 20.42578125 C37.64812365 26.65401423 45.86252177 33.08877745 54.08398438 39.51708984 C56.04114075 41.0318411 58.01643708 42.52005025 60 44 C58.46078927 48.21821674 55.34381024 50.34158512 51.875 52.9375 C50.60050794 53.91398974 49.32711296 54.89191263 48.0546875 55.87109375 C47.38920898 56.38140137 46.72373047 56.89170898 46.03808594 57.41748047 C42.64412503 60.05280086 39.32456076 62.77803103 36 65.5 C30.48264799 70.00427143 24.92008445 74.44182612 19.30444336 78.82275391 C14.00317795 82.96986371 8.7871653 87.21920529 3.59179688 91.49804688 C-0.49388909 94.84469817 -4.67159973 97.97291233 -9 101 C-9 97.49925679 -8.15284707 96.10311624 -6.5625 93 C-2.69431836 84.86854929 -0.01125204 76.38115853 2.75170898 67.82226562 C3.11466064 66.70142578 3.4776123 65.58058594 3.8515625 64.42578125 C4.20379883 63.33475098 4.55603516 62.2437207 4.91894531 61.11962891 C5.92882951 58.20537863 7.09363928 55.42649874 8.3359375 52.60546875 C10.09632656 48.25326217 10.18295174 45.64196251 9 41 C8.57655825 39.10162152 8.15341176 37.20317716 7.73046875 35.3046875 C7.22040068 33.16044174 6.70590851 31.0172446 6.1875 28.875 C5.92122803 27.76366699 5.65495605 26.65233398 5.38061523 25.50732422 C3.71418651 18.64780353 1.88387189 11.92847831 -0.43359375 5.2578125 C-1 3 -1 3 0 0 Z " fill="#B3B3B3" transform="translate(421,286)"/>
</svg>
