<?xml version="1.0" encoding="UTF-8"?>
<svg version="1.1" xmlns="http://www.w3.org/2000/svg" width="960" height="540">
<path d="M0 0 C1.670625 0.061875 1.670625 0.061875 3.375 0.125 C7.45157048 9.69607852 8.39645833 17.11038148 4.765625 27.03125 C2.81077339 31.38024571 0.37741202 35.35241361 -2.234375 39.3359375 C-3.86319424 42.60272665 -4.05254585 44.51728163 -3.625 48.125 C0.57639204 58.63734379 13.04725351 74.31134615 23.375 79.125 C26.12979048 79.72967544 28.88262726 80.03928183 31.6875 80.3125 C32.42806641 80.39435547 33.16863281 80.47621094 33.93164062 80.56054688 C35.74494923 80.75942588 37.55984969 80.94369827 39.375 81.125 C40.48249537 84.44748612 40.32410591 84.99548143 39.20678711 88.14306641 C38.92576645 88.94886139 38.64474579 89.75465637 38.35520935 90.58486938 C38.0407637 91.45662811 37.72631805 92.32838684 37.40234375 93.2265625 C37.08221817 94.13642914 36.76209259 95.04629578 36.43226624 95.98373413 C35.40085195 98.90891237 34.35690016 101.8294362 33.3125 104.75 C32.63523355 106.6637675 31.95879231 108.57782725 31.28320312 110.4921875 C29.95793324 114.24299685 28.62771366 117.9919838 27.29248047 121.73925781 C25.47835524 126.8306121 23.67619589 131.92611883 21.87890625 137.0234375 C21.49556374 138.11031357 21.49556374 138.11031357 21.10447693 139.21914673 C20.52781809 140.85437244 19.9513802 142.48967606 19.375 144.125 C14.90252171 142.45870834 11.54936248 140.1203148 7.875 137.125 C6.62028787 136.12047365 5.36506892 135.11658005 4.109375 134.11328125 C3.48095703 133.60877441 2.85253906 133.10426758 2.20507812 132.58447266 C-0.46154422 130.45786268 -3.16626681 128.38529963 -5.875 126.3125 C-10.39962144 122.84752207 -14.90036446 119.35339248 -19.38891602 115.84179688 C-21.71760378 114.02527113 -24.05536308 112.22096859 -26.39453125 110.41796875 C-28.8945763 108.48809972 -31.35385562 106.53172832 -33.76171875 104.48828125 C-38.26328555 100.82788313 -41.52715346 98.76054134 -47.3984375 98.4609375 C-48.53933838 98.3983374 -49.68023926 98.3357373 -50.85571289 98.27124023 C-52.09957764 98.22298096 -53.34344238 98.17472168 -54.625 98.125 C-55.28442596 98.09810089 -55.94385193 98.07120178 -56.6232605 98.04348755 C-61.56039669 97.84567351 -66.4983565 97.69927972 -71.4375 97.5625 C-72.91993013 97.51916168 -74.4023521 97.47554344 -75.88476562 97.43164062 C-79.46475588 97.3262123 -83.04484029 97.22452889 -86.625 97.125 C-86.91544189 97.89303955 -87.20588379 98.6610791 -87.50512695 99.45239258 C-88.85421624 102.67203079 -90.67388659 105.05549235 -92.8125 107.8125 C-96.90296256 113.15214574 -100.81222345 118.58407472 -104.625 124.125 C-105.43229167 125.29557292 -106.23958333 126.46614583 -107.046875 127.63671875 C-108.89606193 130.32009975 -110.74020351 133.00687599 -112.58203125 135.6953125 C-114.71253477 138.80325884 -116.8582758 141.90009569 -119.01171875 144.9921875 C-125.90412959 154.80504493 -125.90412959 154.80504493 -131.875 165.1875 C-136.81135172 174.57825193 -142.85904977 180.52925821 -152.73046875 184.48046875 C-158.04817621 185.66457365 -162.14879335 184.12611604 -166.77734375 181.5078125 C-167.71900391 180.98316406 -168.66066406 180.45851562 -169.63085938 179.91796875 C-170.59830078 179.36753906 -171.56574219 178.81710938 -172.5625 178.25 C-178.48884411 174.91221957 -184.29809644 171.64168208 -190.625 169.125 C-190.38766949 158.4451271 -182.32546252 150.38165126 -175.27001953 143.09692383 C-173.01985114 140.76002772 -171.66701284 139.25103851 -170.625 136.125 C-171.57295852 133.94088055 -171.57295852 133.94088055 -173.08203125 131.66796875 C-173.88543945 130.36956055 -173.88543945 130.36956055 -174.70507812 129.04492188 C-175.27677734 128.14322266 -175.84847656 127.24152344 -176.4375 126.3125 C-183.92478118 114.41384026 -183.92478118 114.41384026 -184.625 110.125 C-183.60546875 107.58984375 -183.60546875 107.58984375 -181.8125 105.0625 C-181.16410156 104.11632812 -180.51570312 103.17015625 -179.84765625 102.1953125 C-178.7084451 100.62163946 -177.56862699 99.04836188 -176.41748047 97.48339844 C-169.6614242 88.73423082 -169.6614242 88.73423082 -167.625 78.125 C-167.04234375 77.98707031 -166.4596875 77.84914063 -165.859375 77.70703125 C-155.9921478 74.65067314 -149.40903599 66.67231874 -143.73046875 58.34765625 C-143.36566406 57.61417969 -143.00085938 56.88070312 -142.625 56.125 C-143.29166667 53.95833333 -143.29166667 53.95833333 -144.625 52.125 C-144.955 51.135 -145.285 50.145 -145.625 49.125 C-144.8825 48.403125 -144.14 47.68125 -143.375 46.9375 C-139.51503037 42.98980379 -136.70434745 39.52191679 -134.50390625 34.453125 C-134.15013916 33.64262695 -133.79637207 32.83212891 -133.43188477 31.99707031 C-133.16561279 31.37928711 -132.89934082 30.76150391 -132.625 30.125 C-132.01503174 30.11041748 -131.40506348 30.09583496 -130.77661133 30.08081055 C-127.99628936 30.00605225 -125.21713176 29.90948518 -122.4375 29.8125 C-120.99793945 29.77866211 -120.99793945 29.77866211 -119.52929688 29.74414062 C-114.43640169 29.5502934 -110.78058492 29.38771828 -106.625 26.125 C-100.69585266 22.68226929 -93.33983958 22.41245407 -86.625 23.125 C-84.625 25.125 -84.625 25.125 -84.625 28.125 C-74.065 28.125 -63.505 28.125 -52.625 28.125 C-50.13246115 23.13992229 -49.13592067 20.51501732 -48.4375 15.25 C-48.27894531 14.09757812 -48.12039063 12.94515625 -47.95703125 11.7578125 C-47.84746094 10.88898438 -47.73789062 10.02015625 -47.625 9.125 C-44.71144159 8.25872595 -41.79495672 7.40668994 -38.875 6.5625 C-38.05 6.31564453 -37.225 6.06878906 -36.375 5.81445312 C-35.57578125 5.58564453 -34.7765625 5.35683594 -33.953125 5.12109375 C-33.2199707 4.90638428 -32.48681641 4.6916748 -31.73144531 4.47045898 C-29.32335142 4.07552935 -27.89180787 4.23446834 -25.625 5.125 C-23.875 7.6875 -23.875 7.6875 -22.625 10.125 C-14.9998543 8.06414981 -7.22763611 0.24922883 0 0 Z " fill="#B3B3B3" transform="translate(417.625,59.875)"/>
<path d="M0 0 C1.18771723 3.42943519 0.80226223 5.37784675 -0.4375 8.75 C-0.86869141 9.94882813 -0.86869141 9.94882813 -1.30859375 11.171875 C-1.53675781 11.77515625 -1.76492188 12.3784375 -2 13 C-2.66 13 -3.32 13 -4 13 C-3.52140759 11.39566191 -3.04210442 9.79153584 -2.5625 8.1875 C-2.29566406 7.29417969 -2.02882813 6.40085938 -1.75390625 5.48046875 C-1.19612127 3.64526945 -0.60655425 1.81966274 0 0 Z " fill="#B3B3B3" transform="translate(442,192)"/>
<path d="M0 0 C0 3 0 3 0 3 Z " fill="#B3B3B3" transform="translate(279,236)"/>
<path d="" fill="#B3B3B3" transform="translate(0,0)"/>
<path d="" fill="#B3B3B3" transform="translate(0,0)"/>
<path d="" fill="#B3B3B3" transform="translate(0,0)"/>
<path d="" fill="#B3B3B3" transform="translate(0,0)"/>
<path d="" fill="#B3B3B3" transform="translate(0,0)"/>
<path d="" fill="#B3B3B3" transform="translate(0,0)"/>
<path d="" fill="#B3B3B3" transform="translate(0,0)"/>
<path d="" fill="#B3B3B3" transform="translate(0,0)"/>
</svg>
