<?xml version="1.0" encoding="UTF-8"?>
<svg version="1.1" xmlns="http://www.w3.org/2000/svg" width="960" height="540">
<path d="M0 0 C1.01219846 3.70511299 2.007566 7.41454857 3 11.125 C3.28617187 12.17171875 3.57234375 13.2184375 3.8671875 14.296875 C4.13789063 15.31523437 4.40859375 16.33359375 4.6875 17.3828125 C5.06455078 18.78104248 5.06455078 18.78104248 5.44921875 20.20751953 C6.41158001 25.08672525 6.29864636 29.00789983 4.42578125 33.6171875 C4.09054443 34.46337646 3.75530762 35.30956543 3.40991211 36.18139648 C3.04776611 37.07028564 2.68562012 37.9591748 2.3125 38.875 C-0.2498284 45.33888996 -2.63007097 51.75805322 -4.5625 58.4375 C-7.37590749 67.74265517 -10.89067517 77.15962703 -18 84 C-20.80424069 77.89083921 -23.54689345 71.76272844 -26.18383789 65.57958984 C-29.69817215 57.3528701 -33.34308808 49.20553515 -37.171875 41.12109375 C-37.53327072 40.35774216 -37.89466644 39.59439056 -38.26701355 38.8079071 C-40.07832447 34.98828718 -41.89896441 31.17336535 -43.72973633 27.36303711 C-44.40453229 25.94778855 -45.07925875 24.53250684 -45.75390625 23.1171875 C-46.06700745 22.47224838 -46.38010864 21.82730927 -46.70269775 21.16282654 C-48.3023549 17.79569632 -49.46558362 14.6965629 -50 11 C-40.53436892 8.32637438 -30.98777296 5.9925314 -21.4163208 3.73269653 C-20.05905554 3.41175372 -18.70223888 3.08890766 -17.34588623 2.76412964 C-15.40643095 2.30056337 -13.4649581 1.84546368 -11.5234375 1.390625 C-10.38825684 1.12282227 -9.25307617 0.85501953 -8.08349609 0.57910156 C-5.2937174 0.05516213 -2.82720395 -0.11744278 0 0 Z " fill="#B3B3B3" transform="translate(423,306)"/>
</svg>
