<?xml version="1.0" encoding="UTF-8"?>
<svg version="1.1" xmlns="http://www.w3.org/2000/svg" width="960" height="540">
<path d="M0 0 C1.07495117 1.88598633 1.07495117 1.88598633 2.04296875 4.33203125 C2.56987305 5.65364258 2.56987305 5.65364258 3.10742188 7.00195312 C3.46384766 7.92943359 3.82027344 8.85691406 4.1875 9.8125 C4.73954102 11.18631836 4.73954102 11.18631836 5.30273438 12.58789062 C6.91866224 16.70415957 8 19.5129888 8 24 C5.56821203 26.43496782 2.54764351 28.0778753 -0.375 29.875 C-1.14972656 30.39835937 -1.92445313 30.92171875 -2.72265625 31.4609375 C-7.14354796 34.20846689 -10.03871297 35.43329768 -15.2421875 34.42578125 C-16.83795993 33.98466837 -18.42572503 33.51257053 -20 33 C-21.04671875 32.70738281 -22.0934375 32.41476562 -23.171875 32.11328125 C-24.90234326 31.57578732 -26.63150227 31.03406141 -28.359375 30.48828125 C-35.72846843 29.12565303 -42.11039341 33.18579585 -48.54296875 36.29296875 C-49.70119141 36.83244141 -49.70119141 36.83244141 -50.8828125 37.3828125 C-51.92526123 37.88385498 -51.92526123 37.88385498 -52.98876953 38.39501953 C-55.41892986 39.12601459 -56.64739428 38.89319896 -59 38 C-62.90581844 34.47322723 -66.76667529 30.20737099 -68 25 C-68.02233111 23.00012467 -68.02465566 20.99984802 -68 19 C-66.68515625 18.68869141 -66.68515625 18.68869141 -65.34375 18.37109375 C-46.85083124 13.87941938 -28.72022229 8.5515937 -10.93383789 1.75708008 C-9.93860107 1.38349365 -8.94336426 1.00990723 -7.91796875 0.625 C-7.03906982 0.28726562 -6.1601709 -0.05046875 -5.25463867 -0.3984375 C-3 -1 -3 -1 0 0 Z " fill="#B3B3B3" transform="translate(395,369)"/>
</svg>
