<?xml version="1.0" encoding="UTF-8"?>
<svg version="1.1" xmlns="http://www.w3.org/2000/svg" width="960" height="540">
<path d="M0 0 C0.84043997 3.5817048 1.67110899 7.16560643 2.5 10.75 C2.73847656 11.76578125 2.97695313 12.7815625 3.22265625 13.828125 C3.44824219 14.8078125 3.67382812 15.7875 3.90625 16.796875 C4.11572266 17.69760742 4.32519531 18.59833984 4.54101562 19.52636719 C5 22 5 22 5 26 C4.37351562 26.25394531 3.74703125 26.50789063 3.1015625 26.76953125 C2.28429687 27.11371094 1.46703125 27.45789063 0.625 27.8125 C-0.59316406 28.31716797 -0.59316406 28.31716797 -1.8359375 28.83203125 C-5.9249014 31.03889083 -6.69546438 34.80684979 -8 39 C-14.22423137 38.58216965 -19.21090658 37.29567498 -25 35 C-29.13997696 35 -31.45607031 37.16832917 -34.6875 39.5 C-35.29400391 39.92925781 -35.90050781 40.35851562 -36.52539062 40.80078125 C-38.02138026 41.86093138 -39.511287 42.92965571 -41 44 C-41.66 43.67 -42.32 43.34 -43 43 C-43 42.34 -43 41.68 -43 41 C-49.63210711 41.59071399 -55.81796165 42.80480917 -62.25 44.5 C-63.98411546 44.94892042 -65.71848308 45.39686816 -67.453125 45.84375 C-68.24654297 46.04871094 -69.03996094 46.25367188 -69.85742188 46.46484375 C-72.22489003 47.05617126 -74.59912903 47.56347801 -77 48 C-77.33 49.32 -77.66 50.64 -78 52 C-78.65226562 52.06058594 -79.30453125 52.12117188 -79.9765625 52.18359375 C-84.68716217 52.63519991 -89.34201638 53.14195039 -94 54 C-94.41091133 55.31127113 -94.41091133 55.31127113 -94.8301239 56.64903259 C-95.92992059 59.79926607 -97.21039561 62.64279118 -98.71801758 65.61547852 C-99.26230911 66.69422745 -99.80660065 67.77297638 -100.36738586 68.88441467 C-100.95384384 70.03759689 -101.54030182 71.19077911 -102.14453125 72.37890625 C-102.75799277 73.59445352 -103.37091339 74.81027392 -103.98332214 76.02635193 C-106.57112373 81.16249191 -109.16897526 86.29352761 -111.76977539 91.4230957 C-113.36590933 94.57210517 -114.95583395 97.72419201 -116.54239464 100.87803459 C-117.42878568 102.63540617 -118.32216769 104.38924618 -119.21577454 106.14295959 C-122.9772859 113.62059286 -126.14072441 121.13490849 -129 129 C-130.98 129 -132.96 129 -135 129 C-135.67667998 127.75539217 -136.34094719 126.50403104 -137 125.25 C-137.37125 124.55390625 -137.7425 123.8578125 -138.125 123.140625 C-139 121 -139 121 -139 117 C-142.37462715 117.54723683 -144.08235 118.0549 -147 120 C-148.875 120.52734375 -148.875 120.52734375 -151 120.9375 C-154.45203612 121.63678706 -157.75928768 122.52766905 -161.125 123.5625 C-167.97400189 125.40757667 -174.9024247 126.70478259 -182 126 C-184.98673754 124.16483908 -186.44686136 122.10008947 -188 119 C-188.36738281 118.31421875 -188.73476562 117.6284375 -189.11328125 116.921875 C-190.27892879 114.3954495 -190.42292599 112.74901896 -190 110 C-186.85285804 106.45946529 -182.44967918 105.96409716 -178 105 C-178.22300781 104.18917969 -178.44601563 103.37835938 -178.67578125 102.54296875 C-179.40004432 98.72614678 -179.62935499 95.84745682 -179 92 C-175.81651391 88.01265705 -172.07206552 85.26981193 -167.91113281 82.36035156 C-165.38653801 80.56333544 -162.99315757 78.62332926 -160.58422852 76.67553711 C-152.58862963 70.24225863 -144.44339858 64.3155097 -135.46875 59.30859375 C-128.59972149 55.42652112 -122.03380191 51.17452727 -115.5 46.75 C-114.35544003 45.98104487 -113.21049116 45.21266833 -112.06518555 44.44482422 C-108.37337409 41.9682788 -104.6866473 39.48422341 -101 37 C-96.26586707 33.81113086 -91.52877984 30.62675232 -86.78662109 27.4498291 C-84.85515499 26.15362569 -82.92752487 24.85185874 -81 23.54980469 C-75.1718075 19.63110167 -69.40931319 15.9104849 -63 13 C-61.53217203 12.27550907 -60.06474163 11.55021225 -58.59765625 10.82421875 C-57.08688763 10.109966 -55.57516088 9.39773648 -54.0625 8.6875 C-53.31548828 8.31560547 -52.56847656 7.94371094 -51.79882812 7.56054688 C-43.8684625 3.88616694 -37.78792713 5.33768403 -29.72192383 7.86694336 C-22.7123945 10.00681222 -22.7123945 10.00681222 -15.66796875 8.80859375 C-12.94122471 7.02184902 -10.4857968 5.10469903 -8 3 C-2.95918367 0 -2.95918367 0 0 0 Z " fill="#B3B3B3" transform="translate(405,396)"/>
</svg>
