<svg id="svg" xmlns="http://www.w3.org/2000/svg" xmlns:xlink="http://www.w3.org/1999/xlink" width="400" height="225" viewBox="0, 0, 400,225" version="1.1"><g id="svgg"><path id="path0" d="M120.965 91.099 C 120.660 91.322,120.643 91.394,120.891 91.405 C 121.076 91.414,120.998 91.525,120.709 91.665 C 120.403 91.813,120.203 92.112,120.203 92.424 C 120.203 92.707,120.094 93.006,119.962 93.088 C 119.830 93.169,119.774 93.373,119.838 93.540 C 119.918 93.748,119.834 93.800,119.572 93.706 C 119.362 93.631,119.265 93.653,119.358 93.755 C 119.451 93.857,119.261 94.393,118.937 94.946 C 118.612 95.501,118.486 95.881,118.656 95.793 C 118.826 95.705,118.787 95.779,118.571 95.956 C 118.354 96.134,118.177 96.412,118.177 96.573 C 118.177 96.735,118.118 96.808,118.045 96.736 C 117.910 96.600,117.008 97.394,117.107 97.562 C 117.231 97.770,116.070 98.795,115.858 98.664 C 115.733 98.587,115.698 98.632,115.780 98.765 C 115.863 98.898,115.777 99.160,115.590 99.347 C 115.144 99.793,115.156 100.535,115.612 100.710 C 115.873 100.810,115.933 101.009,115.828 101.428 C 115.744 101.765,115.770 101.953,115.892 101.878 C 116.007 101.807,116.167 102.099,116.247 102.526 C 116.328 102.954,116.506 103.374,116.645 103.460 C 116.808 103.560,116.832 103.512,116.714 103.320 C 116.596 103.129,116.620 103.080,116.782 103.180 C 116.919 103.265,116.978 103.473,116.913 103.642 C 116.849 103.812,116.904 104.017,117.036 104.099 C 117.168 104.180,117.276 104.500,117.276 104.810 C 117.276 105.128,117.374 105.312,117.501 105.234 C 117.625 105.157,117.727 105.303,117.727 105.558 C 117.727 106.204,117.766 106.318,118.106 106.659 C 118.271 106.823,118.354 107.043,118.290 107.146 C 118.226 107.249,118.280 107.369,118.410 107.412 C 118.540 107.456,118.664 107.718,118.685 107.994 C 118.706 108.271,118.819 108.497,118.937 108.497 C 119.056 108.497,119.084 108.565,119.001 108.648 C 118.918 108.731,119.007 109.038,119.198 109.330 C 119.389 109.622,119.482 109.965,119.403 110.091 C 119.325 110.218,119.477 110.510,119.741 110.739 C 120.087 111.039,120.140 111.188,119.930 111.272 C 119.708 111.361,119.706 111.392,119.921 111.406 C 120.080 111.416,120.203 111.718,120.203 112.099 C 120.203 112.470,120.304 112.774,120.428 112.774 C 120.551 112.774,120.654 113.002,120.656 113.281 C 120.659 113.690,120.701 113.723,120.878 113.450 C 121.049 113.186,121.097 113.244,121.100 113.718 C 121.101 114.051,121.204 114.386,121.328 114.463 C 121.452 114.539,121.553 114.832,121.553 115.114 C 121.553 115.395,121.629 115.702,121.722 115.794 C 121.882 115.954,121.907 116.036,121.975 116.614 C 121.991 116.745,122.090 116.799,122.196 116.734 C 122.302 116.668,122.341 116.865,122.282 117.171 C 122.221 117.493,122.281 117.727,122.427 117.727 C 122.566 117.727,122.679 117.918,122.679 118.151 C 122.679 118.704,123.243 119.788,123.432 119.599 C 123.513 119.518,123.579 119.655,123.579 119.902 C 123.579 120.150,123.655 120.429,123.748 120.521 C 123.926 120.700,123.956 120.822,124.001 121.566 C 124.017 121.821,124.131 121.967,124.254 121.891 C 124.460 121.764,124.501 121.873,124.569 122.735 C 124.582 122.890,124.731 123.104,124.900 123.211 C 125.161 123.377,125.161 123.440,124.900 123.623 C 124.661 123.790,124.655 123.864,124.873 123.953 C 125.028 124.015,125.155 124.312,125.155 124.611 C 125.155 124.910,125.256 125.155,125.380 125.155 C 125.504 125.155,125.605 125.357,125.605 125.605 C 125.605 125.853,125.706 126.055,125.830 126.055 C 125.954 126.055,126.055 126.264,126.055 126.519 C 126.055 126.774,126.156 126.920,126.280 126.843 C 126.472 126.725,126.620 127.355,126.532 127.912 C 126.517 128.005,126.607 128.081,126.730 128.081 C 126.854 128.081,126.956 128.209,126.956 128.366 C 126.956 128.522,127.163 129.038,127.417 129.512 C 127.671 129.985,127.782 130.313,127.663 130.239 C 127.541 130.164,127.498 130.300,127.565 130.554 C 127.629 130.801,127.772 130.947,127.882 130.879 C 128.085 130.753,128.162 131.052,128.096 131.719 C 128.076 131.925,128.166 132.159,128.295 132.239 C 128.425 132.319,128.531 132.573,128.531 132.803 C 128.531 133.033,128.637 133.256,128.766 133.299 C 128.896 133.342,129.018 133.601,129.039 133.875 C 129.059 134.148,129.217 134.426,129.390 134.492 C 129.562 134.559,129.645 134.764,129.575 134.948 C 129.504 135.133,129.544 135.284,129.664 135.284 C 129.784 135.284,129.882 135.481,129.882 135.721 C 129.882 135.961,129.979 136.218,130.097 136.291 C 130.215 136.364,130.250 136.585,130.175 136.782 C 130.094 136.994,130.190 137.226,130.410 137.349 C 130.615 137.464,130.782 137.806,130.782 138.109 C 130.782 138.412,130.894 138.661,131.031 138.661 C 131.168 138.661,131.222 138.813,131.151 138.998 C 131.080 139.184,131.120 139.336,131.239 139.336 C 131.359 139.336,131.458 139.640,131.458 140.011 C 131.458 140.383,131.559 140.687,131.683 140.687 C 131.806 140.687,131.908 140.881,131.908 141.118 C 131.908 141.355,132.014 141.585,132.143 141.628 C 132.272 141.671,132.394 141.926,132.415 142.194 C 132.435 142.462,132.532 142.632,132.630 142.571 C 132.728 142.510,132.808 142.731,132.808 143.061 C 132.808 143.492,132.900 143.626,133.134 143.536 C 133.342 143.456,133.419 143.519,133.346 143.708 C 133.264 143.922,133.394 143.975,133.808 143.896 C 134.125 143.835,134.384 143.690,134.384 143.573 C 134.384 143.457,134.490 143.427,134.621 143.508 C 134.751 143.588,135.035 143.450,135.251 143.201 C 135.467 142.951,135.791 142.756,135.971 142.765 C 136.802 142.811,137.324 142.693,137.198 142.487 C 137.121 142.364,137.267 142.250,137.522 142.234 C 137.777 142.219,138.087 142.181,138.210 142.150 C 138.334 142.119,138.543 142.081,138.674 142.065 C 138.805 142.050,138.863 141.958,138.803 141.860 C 138.743 141.763,138.864 141.670,139.071 141.654 C 139.686 141.605,140.213 141.461,140.380 141.293 C 140.466 141.207,140.711 141.137,140.925 141.137 C 141.139 141.137,141.374 140.978,141.449 140.785 C 141.523 140.591,141.691 140.499,141.822 140.580 C 141.954 140.662,142.251 140.509,142.482 140.242 C 142.714 139.975,142.936 139.787,142.977 139.824 C 143.146 139.978,144.046 139.167,143.893 138.999 C 143.801 138.897,143.903 138.878,144.119 138.955 C 144.384 139.050,144.513 138.984,144.513 138.753 C 144.513 138.564,144.615 138.472,144.740 138.549 C 144.865 138.626,145.025 138.538,145.095 138.354 C 145.169 138.162,145.419 138.056,145.677 138.105 C 145.988 138.165,146.093 138.096,146.013 137.886 C 145.943 137.706,146.083 137.530,146.352 137.460 C 146.604 137.394,146.743 137.232,146.661 137.100 C 146.571 136.954,146.738 136.860,147.089 136.860 C 147.405 136.860,147.665 136.753,147.665 136.623 C 147.665 136.493,147.968 136.280,148.340 136.151 C 148.711 136.022,148.963 135.831,148.899 135.729 C 148.836 135.626,148.988 135.477,149.237 135.398 C 149.486 135.319,149.690 135.154,149.690 135.032 C 149.690 134.910,149.994 134.705,150.366 134.575 C 150.737 134.446,151.041 134.248,151.041 134.137 C 151.041 134.025,151.174 133.934,151.337 133.934 C 151.499 133.934,151.920 133.633,152.271 133.266 C 152.623 132.899,152.997 132.652,153.101 132.717 C 153.206 132.782,153.292 132.677,153.292 132.484 C 153.292 132.291,153.402 132.158,153.535 132.189 C 153.669 132.220,153.936 132.015,154.129 131.734 C 154.445 131.272,154.445 131.236,154.128 131.358 C 153.909 131.442,153.683 131.317,153.527 131.025 C 153.389 130.768,153.356 130.554,153.453 130.549 C 153.550 130.545,153.376 130.401,153.067 130.230 C 152.757 130.058,152.535 129.853,152.572 129.772 C 152.610 129.692,152.255 129.329,151.785 128.965 C 150.189 127.732,149.016 126.619,149.016 126.337 C 149.015 126.182,148.922 126.055,148.807 126.055 C 148.424 126.055,147.214 124.675,147.214 124.237 C 147.214 123.999,147.316 123.804,147.440 123.804 C 147.563 123.804,147.665 123.652,147.665 123.467 C 147.665 123.281,147.766 123.129,147.890 123.129 C 148.014 123.129,148.095 123.053,148.070 122.960 C 147.979 122.614,148.380 121.776,148.579 121.899 C 148.692 121.969,148.722 121.864,148.646 121.664 C 148.550 121.414,148.661 121.261,149.004 121.171 C 149.353 121.080,149.469 120.916,149.392 120.622 C 149.332 120.391,149.374 120.203,149.486 120.203 C 149.599 120.203,149.692 119.975,149.694 119.696 C 149.697 119.287,149.739 119.254,149.916 119.527 C 150.102 119.816,150.134 119.808,150.137 119.471 C 150.139 119.254,150.267 119.076,150.422 119.074 C 150.643 119.071,150.644 119.032,150.427 118.895 C 150.224 118.766,150.269 118.634,150.596 118.398 C 150.841 118.222,151.041 117.942,151.041 117.776 C 151.041 117.610,151.142 117.537,151.266 117.614 C 151.390 117.690,151.491 117.545,151.491 117.290 C 151.491 117.035,151.599 116.826,151.732 116.826 C 151.870 116.826,151.911 116.634,151.827 116.370 C 151.728 116.057,151.776 115.934,151.981 115.976 C 152.145 116.010,152.254 115.912,152.223 115.757 C 152.192 115.602,152.274 115.476,152.405 115.476 C 152.536 115.476,152.580 115.374,152.503 115.249 C 152.426 115.124,152.521 114.961,152.715 114.887 C 152.909 114.813,153.067 114.560,153.067 114.326 C 153.067 114.092,153.161 113.900,153.277 113.900 C 153.491 113.900,153.868 113.025,153.787 112.718 C 153.762 112.625,153.900 112.549,154.093 112.549 C 154.286 112.549,154.385 112.454,154.314 112.338 C 154.242 112.222,154.362 112.022,154.582 111.895 C 154.873 111.725,154.893 111.661,154.656 111.656 C 154.394 111.650,154.402 111.595,154.697 111.367 C 154.897 111.213,155.094 110.884,155.134 110.636 C 155.173 110.388,155.383 110.053,155.599 109.892 C 155.816 109.730,155.993 109.395,155.993 109.147 C 155.993 108.899,156.095 108.759,156.218 108.835 C 156.342 108.912,156.440 108.791,156.436 108.567 C 156.428 108.089,155.768 107.122,155.768 107.588 C 155.768 107.794,155.642 107.754,155.374 107.463 C 155.158 107.227,154.828 107.001,154.643 106.961 C 154.457 106.921,154.273 106.800,154.234 106.692 C 154.195 106.585,154.018 106.553,153.840 106.621 C 153.653 106.693,153.517 106.611,153.517 106.426 C 153.517 106.211,153.295 106.124,152.832 106.156 C 152.228 106.197,152.181 106.159,152.431 105.831 C 152.587 105.626,152.626 105.534,152.518 105.626 C 152.409 105.717,152.195 105.688,152.042 105.561 C 151.889 105.434,151.677 105.346,151.571 105.365 C 151.112 105.447,150.800 105.329,150.929 105.121 C 151.007 104.993,150.818 104.896,150.492 104.896 C 150.175 104.896,149.916 104.789,149.916 104.658 C 149.916 104.526,149.814 104.482,149.690 104.558 C 149.567 104.635,149.465 104.584,149.465 104.446 C 149.465 104.307,149.364 104.257,149.240 104.333 C 149.116 104.410,149.015 104.365,149.015 104.234 C 149.015 104.103,148.813 103.995,148.565 103.995 C 148.317 103.995,148.115 103.888,148.115 103.757 C 148.115 103.626,148.024 103.575,147.913 103.643 C 147.802 103.712,147.656 103.622,147.587 103.444 C 147.519 103.266,147.104 103.053,146.665 102.970 C 146.227 102.888,145.923 102.730,145.992 102.620 C 146.060 102.510,145.850 102.420,145.526 102.420 C 145.191 102.420,144.997 102.323,145.076 102.195 C 145.152 102.071,145.013 101.970,144.765 101.970 C 144.517 101.970,144.248 101.861,144.166 101.729 C 144.084 101.597,143.865 101.547,143.678 101.619 C 143.446 101.708,143.377 101.646,143.462 101.425 C 143.550 101.197,143.457 101.125,143.150 101.184 C 142.869 101.238,142.712 101.144,142.712 100.920 C 142.712 100.710,142.584 100.620,142.391 100.694 C 142.215 100.762,141.945 100.667,141.792 100.483 C 141.640 100.299,141.374 100.202,141.202 100.269 C 141.029 100.335,140.950 100.289,141.026 100.166 C 141.101 100.044,140.955 99.944,140.700 99.944 C 140.445 99.944,140.236 99.842,140.236 99.719 C 140.236 99.595,140.034 99.494,139.786 99.494 C 139.539 99.494,139.336 99.392,139.336 99.268 C 139.336 99.145,139.172 99.043,138.973 99.043 C 138.498 99.043,136.860 98.120,136.860 97.852 C 136.860 97.738,136.714 97.700,136.537 97.769 C 136.359 97.837,135.963 97.696,135.657 97.455 C 135.351 97.214,134.939 97.017,134.742 97.017 C 134.545 97.017,134.384 96.916,134.384 96.792 C 134.384 96.669,134.181 96.567,133.934 96.567 C 133.686 96.567,133.483 96.469,133.483 96.349 C 133.483 96.229,133.331 96.189,133.146 96.261 C 132.928 96.344,132.808 96.256,132.808 96.013 C 132.808 95.747,132.684 95.676,132.385 95.771 C 132.117 95.856,131.912 95.778,131.829 95.561 C 131.756 95.372,131.491 95.217,131.239 95.217 C 130.988 95.217,130.782 95.104,130.782 94.965 C 130.782 94.826,130.585 94.766,130.340 94.830 C 130.091 94.895,129.919 94.840,129.946 94.705 C 129.973 94.572,129.640 94.350,129.207 94.212 C 127.905 93.795,126.741 93.131,126.890 92.890 C 126.972 92.757,126.882 92.721,126.671 92.801 C 126.474 92.877,126.186 92.786,126.031 92.599 C 125.876 92.412,125.564 92.307,125.339 92.366 C 125.114 92.425,124.979 92.393,125.039 92.296 C 125.184 92.062,123.804 91.493,123.298 91.578 C 123.081 91.614,122.904 91.536,122.904 91.404 C 122.904 91.273,122.752 91.165,122.566 91.165 C 122.380 91.165,122.228 91.070,122.228 90.954 C 122.228 90.659,121.443 90.749,120.965 91.099 " stroke="none" fill="#b4b4b4" fill-rule="evenodd"></path><path id="path1" d="M116.165 98.437 L 115.617 99.156 116.334 98.495 C 117.080 97.807,117.165 97.684,116.882 97.705 C 116.790 97.712,116.467 98.041,116.165 98.437 M152.242 105.866 C 152.242 106.025,152.503 106.168,152.823 106.184 C 153.143 106.200,153.253 106.156,153.067 106.087 C 152.881 106.018,152.620 105.875,152.485 105.770 C 152.338 105.654,152.242 105.692,152.242 105.866 M148.463 121.778 L 148.063 122.566 148.555 122.052 C 148.826 121.769,149.006 121.414,148.955 121.264 C 148.904 121.113,148.683 121.345,148.463 121.778 M153.299 130.602 C 153.295 130.688,153.545 131.032,153.855 131.366 C 154.164 131.700,154.416 131.883,154.414 131.772 C 154.409 131.494,153.975 130.843,153.971 131.107 C 153.969 131.223,153.819 131.122,153.637 130.882 C 153.455 130.641,153.303 130.515,153.299 130.602 M139.503 141.606 C 139.285 141.733,138.991 141.765,138.849 141.677 C 138.690 141.578,138.653 141.617,138.752 141.777 C 138.963 142.120,139.160 142.105,139.687 141.707 C 140.190 141.326,140.084 141.268,139.503 141.606 M135.509 142.938 C 135.509 143.061,135.737 143.161,136.016 143.159 C 136.425 143.156,136.458 143.114,136.185 142.938 C 135.748 142.656,135.509 142.656,135.509 142.938 " stroke="none" fill="#b8b4b4" fill-rule="evenodd"></path><path id="path2" d="M116.165 98.437 L 115.617 99.156 116.334 98.495 C 117.080 97.807,117.165 97.684,116.882 97.705 C 116.790 97.712,116.467 98.041,116.165 98.437 M152.242 105.866 C 152.242 106.025,152.503 106.168,152.823 106.184 C 153.143 106.200,153.253 106.156,153.067 106.087 C 152.881 106.018,152.620 105.875,152.485 105.770 C 152.338 105.654,152.242 105.692,152.242 105.866 M148.463 121.778 L 148.063 122.566 148.555 122.052 C 148.826 121.769,149.006 121.414,148.955 121.264 C 148.904 121.113,148.683 121.345,148.463 121.778 M153.299 130.602 C 153.295 130.688,153.545 131.032,153.855 131.366 C 154.164 131.700,154.416 131.883,154.414 131.772 C 154.409 131.494,153.975 130.843,153.971 131.107 C 153.969 131.223,153.819 131.122,153.637 130.882 C 153.455 130.641,153.303 130.515,153.299 130.602 M139.503 141.606 C 139.285 141.733,138.991 141.765,138.849 141.677 C 138.690 141.578,138.653 141.617,138.752 141.777 C 138.963 142.120,139.160 142.105,139.687 141.707 C 140.190 141.326,140.084 141.268,139.503 141.606 M135.509 142.938 C 135.509 143.061,135.737 143.161,136.016 143.159 C 136.425 143.156,136.458 143.114,136.185 142.938 C 135.748 142.656,135.509 142.656,135.509 142.938 " stroke="none" fill="#b8b4b4" fill-rule="evenodd"></path><path id="path3" d="M116.165 98.437 L 115.617 99.156 116.334 98.495 C 117.080 97.807,117.165 97.684,116.882 97.705 C 116.790 97.712,116.467 98.041,116.165 98.437 M152.242 105.866 C 152.242 106.025,152.503 106.168,152.823 106.184 C 153.143 106.200,153.253 106.156,153.067 106.087 C 152.881 106.018,152.620 105.875,152.485 105.770 C 152.338 105.654,152.242 105.692,152.242 105.866 M148.463 121.778 L 148.063 122.566 148.555 122.052 C 148.826 121.769,149.006 121.414,148.955 121.264 C 148.904 121.113,148.683 121.345,148.463 121.778 M153.299 130.602 C 153.295 130.688,153.545 131.032,153.855 131.366 C 154.164 131.700,154.416 131.883,154.414 131.772 C 154.409 131.494,153.975 130.843,153.971 131.107 C 153.969 131.223,153.819 131.122,153.637 130.882 C 153.455 130.641,153.303 130.515,153.299 130.602 M139.503 141.606 C 139.285 141.733,138.991 141.765,138.849 141.677 C 138.690 141.578,138.653 141.617,138.752 141.777 C 138.963 142.120,139.160 142.105,139.687 141.707 C 140.190 141.326,140.084 141.268,139.503 141.606 M135.509 142.938 C 135.509 143.061,135.737 143.161,136.016 143.159 C 136.425 143.156,136.458 143.114,136.185 142.938 C 135.748 142.656,135.509 142.656,135.509 142.938 " stroke="none" fill="#b8b4b4" fill-rule="evenodd"></path><path id="path4" d="M116.165 98.437 L 115.617 99.156 116.334 98.495 C 117.080 97.807,117.165 97.684,116.882 97.705 C 116.790 97.712,116.467 98.041,116.165 98.437 M152.242 105.866 C 152.242 106.025,152.503 106.168,152.823 106.184 C 153.143 106.200,153.253 106.156,153.067 106.087 C 152.881 106.018,152.620 105.875,152.485 105.770 C 152.338 105.654,152.242 105.692,152.242 105.866 M148.463 121.778 L 148.063 122.566 148.555 122.052 C 148.826 121.769,149.006 121.414,148.955 121.264 C 148.904 121.113,148.683 121.345,148.463 121.778 M153.299 130.602 C 153.295 130.688,153.545 131.032,153.855 131.366 C 154.164 131.700,154.416 131.883,154.414 131.772 C 154.409 131.494,153.975 130.843,153.971 131.107 C 153.969 131.223,153.819 131.122,153.637 130.882 C 153.455 130.641,153.303 130.515,153.299 130.602 M139.503 141.606 C 139.285 141.733,138.991 141.765,138.849 141.677 C 138.690 141.578,138.653 141.617,138.752 141.777 C 138.963 142.120,139.160 142.105,139.687 141.707 C 140.190 141.326,140.084 141.268,139.503 141.606 M135.509 142.938 C 135.509 143.061,135.737 143.161,136.016 143.159 C 136.425 143.156,136.458 143.114,136.185 142.938 C 135.748 142.656,135.509 142.656,135.509 142.938 " stroke="none" fill="#b8b4b4" fill-rule="evenodd"></path></g></svg>