<?xml version="1.0" encoding="UTF-8"?>
<svg version="1.1" xmlns="http://www.w3.org/2000/svg" width="960" height="540">
<path d="M0 0 C1.14404297 1.88476562 1.14404297 1.88476562 2.2421875 4.40625 C2.66121338 5.35927002 3.08023926 6.31229004 3.51196289 7.29418945 C3.96176514 8.35210693 4.41156738 9.41002441 4.875 10.5 C5.59901001 12.17485474 5.59901001 12.17485474 6.33764648 13.88354492 C10.65042645 23.96326189 14.67622722 34.15437977 18.63867188 44.37597656 C21.93835859 52.86929244 25.3524853 61.30641534 28.86328125 69.71484375 C29.7011398 71.7293903 30.53894911 73.74395733 31.37670898 75.75854492 C32.6187262 78.74371657 33.86511513 81.72665424 35.12576294 84.70401001 C36.30102359 87.48032742 37.46041077 90.26281607 38.6171875 93.046875 C38.97480667 93.87875839 39.33242584 94.71064178 39.70088196 95.56773376 C42.69482796 102.84433597 42.69482796 102.84433597 41 107 C39.76000977 108.921875 39.76000977 108.921875 38.19140625 110.75 C37.61342285 111.43521729 37.03543945 112.12043457 36.43994141 112.82641602 C35.51060791 113.90234009 35.51060791 113.90234009 34.5625 115 C33.28863911 116.50765837 32.01651987 118.01678993 30.74609375 119.52734375 C30.11429199 120.27612793 29.48249023 121.02491211 28.83154297 121.79638672 C26.17854881 124.98832557 23.63914077 128.26067906 21.125 131.5625 C20.7029126 132.11615234 20.2808252 132.66980469 19.84594727 133.24023438 C18.89474398 134.49155209 17.94692108 135.74543865 17 137 C14.66538732 136.67574824 12.33229607 136.34051523 10 136 C8.9171875 135.85304688 7.834375 135.70609375 6.71875 135.5546875 C3.05032265 134.78004386 0.29063823 133.82154177 -3 132 C-4.90673828 129.05102539 -4.90673828 129.05102539 -6.4453125 125.41015625 C-6.87537094 124.41785255 -6.87537094 124.41785255 -7.31411743 123.40550232 C-8.23018231 121.27852477 -9.11511671 119.14010975 -10 117 C-10.59066458 115.61758663 -11.18343073 114.23606926 -11.77832031 112.85546875 C-13.33929764 109.21682703 -14.87177576 105.56690987 -16.39529419 101.91244507 C-18.11805171 97.78019895 -19.85077706 93.65212926 -21.58203125 89.5234375 C-21.94088913 88.66689072 -22.29974701 87.81034393 -22.66947937 86.92784119 C-27.11014037 76.33648507 -31.61393962 65.77192306 -36.12005615 55.20828247 C-38.09909517 50.56857446 -40.06909463 45.92520846 -42.03106689 41.27825928 C-43.0371179 38.91272441 -44.0606837 36.55523473 -45.08544922 34.19775391 C-45.74354651 32.65934323 -46.40127567 31.12077502 -47.05859375 29.58203125 C-47.52616844 28.52395515 -47.52616844 28.52395515 -48.00318909 27.44450378 C-50.05854722 22.58323309 -50.05854722 22.58323309 -49.78933716 19.90142822 C-48.5622411 16.94548595 -46.10666671 16.37033355 -43.29820251 15.18431091 C-42.49725662 14.86438675 -41.69631073 14.54446259 -40.87109375 14.21484375 C-40.04803238 13.87248184 -39.22497101 13.53011993 -38.37696838 13.17738342 C-35.73614126 12.08306407 -33.08713707 11.01028692 -30.4375 9.9375 C-28.67847226 9.21165223 -26.92000118 8.48445388 -25.16210938 7.75585938 C-21.17217143 6.10854237 -17.18168441 4.46346564 -13.17160034 2.86569214 C-11.69782864 2.27818414 -10.22844276 1.67957663 -8.76321411 1.07107544 C-3.33698389 -1.11232796 -3.33698389 -1.11232796 0 0 Z " fill="#B3B3B3" transform="translate(276,242)"/>
</svg>
